<svg width="49" height="50" viewBox="0 0 49 50" fill="none" xmlns="http://www.w3.org/2000/svg">
<path d="M24.9995 20.4545V30.1363H38.454C37.8632 33.25 36.0903 35.8864 33.4312 37.6591L41.5448 43.9546C46.2721 39.5911 48.9994 33.182 48.9994 25.5684C48.9994 23.7957 48.8403 22.091 48.5448 20.4548L24.9995 20.4545Z" fill="#4285F4"/>
<path d="M10.9888 29.7584L9.15889 31.1592L2.68152 36.2046C6.79514 44.3636 15.2263 50 24.999 50C31.7488 50 37.4078 47.7727 41.5443 43.9546L33.4307 37.6591C31.2034 39.1591 28.3625 40.0683 24.999 40.0683C18.499 40.0683 12.9764 35.682 10.999 29.7729L10.9888 29.7584Z" fill="#34A853"/>
<path d="M2.68162 13.7955C0.97717 17.159 0 20.9545 0 24.9998C0 29.0452 0.97717 32.8407 2.68162 36.2042C2.68162 36.2268 10.9999 29.7497 10.9999 29.7497C10.4999 28.2497 10.2044 26.6589 10.2044 24.9996C10.2044 23.3403 10.4999 21.7495 10.9999 20.2495L2.68162 13.7955Z" fill="#FBBC05"/>
<path d="M24.9995 9.95452C28.6813 9.95452 31.954 11.2272 34.5676 13.6818L41.7267 6.5228C37.3857 2.47742 31.7496 0 24.9995 0C15.2268 0 6.79514 5.61362 2.68152 13.7954L10.9996 20.25C12.9767 14.3408 18.4995 9.95452 24.9995 9.95452Z" fill="#EA4335"/>
</svg>
